<svg xmlns="http://www.w3.org/2000/svg" viewBox="4 4 16 16" fill="currentColor"><path fill-rule="evenodd" d="M11.245 4.039c.107-.01.215-.02.32-.039h.886c.12.017.242.031.364.045.257.03.515.06.767.119a6.87 6.87 0 0 1 1.095.31 7.808 7.808 0 0 1 5.086 6.457c.032.285.048.57.048.857v.019c0 .394-.03.787-.09 1.176a7.811 7.811 0 0 1-2.704 4.798c0 .157.002.313.003.47.006.543.011 1.087-.016 1.629a1.218 1.218 0 0 1-.07.12h-.127c-.324-.169-.646-.345-.967-.52-.288-.158-.575-.315-.865-.468a7.814 7.814 0 0 1-10.768-7.789c.028-.362.082-.722.16-1.076.09-.438.223-.867.396-1.28.16-.404.358-.792.59-1.16.32-.52.7-1 1.132-1.432.194-.193.4-.375.615-.545a7.744 7.744 0 0 1 4.145-1.691Zm.908 3.066c-.451.187-.853.476-1.174.843-.354.419-.598.92-.708 1.457-.079.415-.081.84-.008 1.257.053.274.137.541.221.808.052.165.104.329.148.495.152.454.19.938.11 1.41a2.25 2.25 0 0 1-2.914 1.675 2.968 2.968 0 0 0-.454-.17c.234.359.53.673.875.928a4.595 4.595 0 0 0 4.143.72 4.281 4.281 0 0 0 2.408-1.846c.206-.373.34-.783.394-1.206a4.128 4.128 0 0 0-.142-1.636 5.504 5.504 0 0 0-.528-1.163c-.152-.24-.323-.466-.493-.693a17.288 17.288 0 0 1-.318-.432 3.903 3.903 0 0 1-.615-1.085 1.436 1.436 0 0 1 .517-1.568l-.036-.028a3.174 3.174 0 0 0-1.426.234Z" clip-rule="evenodd"/></svg>