<svg xmlns="http://www.w3.org/2000/svg" viewBox="3 3 18 18" fill="currentColor">
<g clip-path="url(#clip0_543_4074)"><path fill-rule="evenodd" clip-rule="evenodd" d="M10.2972 6.27097C10.5552 6.42581 10.8133 6.56775 11.0714 6.70968C11.3294 6.85162 11.5875 6.99355 11.8456 7.14839V6.89033V5.80646V3.32904C11.4326 3.38065 11.0197 3.53549 10.6585 3.79355L10.6584 3.79356C9.88426 4.25807 9.11006 4.72259 8.28426 5.1871C8.61973 5.36774 8.9423 5.54838 9.26487 5.72902L9.26491 5.72904L9.26494 5.72906C9.58751 5.9097 9.91008 6.09034 10.2456 6.27097H10.2972ZM13.4447 3.89677C13.0318 3.6387 12.5673 3.48386 12.1028 3.38064V5.34193V5.44516V7.19999L15.7157 5.18709C14.9931 4.72258 14.219 4.30968 13.4448 3.89678L13.4448 3.89678L13.4447 3.89677ZM15.871 9.47095L12.2581 7.35483L15.871 5.34192V7.6645V9.2645V9.47095ZM8.12902 9.41935L11.7419 7.40645L8.12902 5.29032V5.49677V7.09677V9.41935ZM18.5032 6.7871L18.5548 6.83872C18.9677 6.99355 19.2774 7.25162 19.5355 7.5613L16.129 9.47097V5.39355C16.4903 5.59998 16.8644 5.8193 17.2385 6.03862L17.2387 6.03872L17.2388 6.03878C17.613 6.25812 17.9871 6.47745 18.3484 6.68388L18.5032 6.7871ZM7.14757 5.80645C6.63144 6.11612 5.54757 6.73548 5.54757 6.73548C5.13467 6.94193 4.77338 7.25161 4.4637 7.6129C4.8766 7.85375 5.38125 8.14049 5.8859 8.42722L5.88616 8.42737L5.88637 8.42749C6.13855 8.57077 6.39072 8.71405 6.63144 8.85161C6.94686 9.00932 7.20205 9.16703 7.42 9.30173L7.42001 9.30174L7.42004 9.30176C7.48739 9.34338 7.55117 9.3828 7.61209 9.41935C7.65151 9.43906 7.68341 9.45878 7.71066 9.47562C7.75474 9.50286 7.78664 9.52257 7.81854 9.52257V5.44516C7.79273 5.44516 7.77983 5.45806 7.76692 5.47096C7.75402 5.48386 7.74112 5.49677 7.71531 5.49677C7.68951 5.52257 7.61209 5.56128 7.50887 5.61289L7.50886 5.6129L7.50886 5.6129C7.40563 5.66451 7.2766 5.72903 7.14757 5.80645ZM15.2004 9.98709C14.8391 10.2452 14.323 10.5032 14.0133 10.6581C13.652 10.8645 13.1359 11.1226 12.723 11.329L12.0004 11.7419L8.28426 9.67741L12.0004 7.50967L15.7165 9.67741L15.2004 9.98709ZM4.1557 9.47098V11.8452C4.72344 11.5355 5.23957 11.2258 5.80731 10.8645L5.91054 10.8129L7.7686 9.72905L6.58151 9.05808C6.24598 8.86635 5.87707 8.66349 5.51611 8.465L5.51608 8.46499C5.0997 8.23603 4.6939 8.01289 4.36215 7.81937C4.1557 8.3355 4.10409 8.90324 4.1557 9.47098ZM19.8972 9.16129V11.8452L16.2843 9.78064L19.6907 7.87097C19.8456 8.28387 19.9488 8.69677 19.8972 9.16129ZM11.8968 12L8.12902 9.93548V14.1677L10.5032 15.4581L10.5032 15.4581L10.5033 15.4581C10.9678 15.7161 11.4323 15.9742 11.8451 16.2323V16.0258V15.3548V12H11.8968ZM6.0645 13.0839C5.49676 12.7226 4.87741 12.3613 4.25805 12.0516C4.77417 11.7419 5.3419 11.4323 5.90964 11.1226L5.90967 11.1226L6.0645 11.0194C6.37418 10.8387 6.67096 10.6581 6.96773 10.4774L6.96775 10.4774C7.26451 10.2968 7.56128 10.1161 7.87096 9.93548V14.0645C7.81934 14.0645 7.71612 14.0129 7.6645 13.9613C7.6387 13.9355 7.59999 13.9226 7.56128 13.9097C7.52257 13.8968 7.48386 13.8839 7.45805 13.8581C7.2516 13.729 7.03225 13.6129 6.81289 13.4968C6.59354 13.3806 6.37418 13.2645 6.16773 13.1355L6.0645 13.0839ZM12.154 16.0774V16.2839L12.5669 16.0774C12.7066 15.9936 12.8615 15.9098 13.0314 15.8177L13.0315 15.8177L13.0316 15.8176L13.0317 15.8176C13.1756 15.7397 13.3304 15.6559 13.496 15.5613C14.2185 15.1484 15.2508 14.5806 15.9218 14.2194V13.2387V13.1871V12.5161V9.93548L12.2056 12C12.1161 12 12.143 14.8725 12.1518 15.8036L12.1518 15.8039C12.1531 15.9462 12.154 16.0432 12.154 16.0774ZM16.129 12.5161V9.93548L17.9355 10.9677C18.4516 11.2774 18.9677 11.5871 19.329 11.7935L19.7419 12.0516C19.4335 12.2177 19.0814 12.4165 18.7157 12.623L18.7156 12.6231L18.7154 12.6232L18.7153 12.6232C18.2857 12.8658 17.8375 13.1189 17.4193 13.3419L16.129 14.0645V13.2387V12.5161ZM7.56168 14.1677C7.52225 14.148 7.49035 14.1283 7.46311 14.1115C7.41903 14.0842 7.38713 14.0645 7.35523 14.0645C7.14878 13.9613 6.94233 13.8452 6.73588 13.729C6.52942 13.6129 6.32297 13.4968 6.11652 13.3935L6.06491 13.3419C5.75523 13.1613 5.43265 12.9806 5.11007 12.8L5.11006 12.8C4.78748 12.6194 4.4649 12.4387 4.15523 12.2581V14.5806C4.15523 14.9419 4.15523 15.3548 4.25846 15.7161C4.28426 15.7935 4.31007 15.8839 4.33588 15.9742C4.36168 16.0645 4.38749 16.1548 4.41329 16.2323L7.76813 14.271C7.7287 14.2513 7.69681 14.2391 7.66956 14.2287C7.62548 14.2118 7.59358 14.1996 7.56168 14.1677ZM17.2641 13.729C17.4706 13.6129 17.677 13.4968 17.8835 13.3935L17.9351 13.3419C18.2447 13.1613 18.5673 12.9806 18.8899 12.8C19.2125 12.6194 19.5351 12.4387 19.8447 12.2581V14.5806C19.8447 14.9419 19.7931 15.3548 19.7415 15.7161C19.7415 15.9226 19.6899 16.0774 19.5867 16.2323L16.2318 14.271L16.4383 14.1677C16.4777 14.148 16.5096 14.1358 16.5369 14.1254C16.5809 14.1086 16.6128 14.0964 16.6447 14.0645C16.8512 13.9613 17.0576 13.8452 17.2641 13.729ZM5.44515 17.2129C6.21934 17.6774 7.04515 18.1419 7.87096 18.6065V17.0065V16.8V14.529C7.30321 14.8645 6.74838 15.1871 6.19354 15.5097C5.6387 15.8323 5.08386 16.1549 4.51612 16.4903C4.77418 16.7484 5.08386 17.0065 5.44515 17.2129ZM10.6873 17.1014C10.2663 17.3527 9.8284 17.6141 9.41934 17.8323C9.13146 18.0122 8.86867 18.167 8.64846 18.2968L8.64844 18.2968L8.64805 18.297L8.64718 18.2975C8.55204 18.3536 8.46487 18.405 8.38708 18.4516L8.12902 18.6065V16.3871V16.2839V14.529L10.0387 15.5613L11.7419 16.4903C11.4255 16.6607 11.0631 16.877 10.6873 17.1014L10.6873 17.1014ZM12.9283 16.0917L12.9282 16.0917L12.9281 16.0918C12.7622 16.1807 12.6074 16.2636 12.4637 16.3355C12.4121 16.3613 12.3734 16.3871 12.3347 16.4129L12.3347 16.4129C12.296 16.4387 12.2572 16.4645 12.2056 16.4903C12.2314 16.4903 12.2443 16.5032 12.2572 16.5161C12.2701 16.529 12.2831 16.5419 12.3089 16.5419C12.3863 16.5935 12.4766 16.6451 12.5669 16.6967L12.5669 16.6968C12.6572 16.7484 12.7476 16.8 12.825 16.8516C13.3153 17.1355 13.8186 17.4323 14.3218 17.729L14.322 17.7291L14.322 17.7292L14.3221 17.7292C14.8252 18.0259 15.3283 18.3226 15.8185 18.6064V14.4774L15.649 14.5764C15.0454 14.9289 14.2535 15.3912 13.5476 15.7677C13.3264 15.8783 13.12 15.9889 12.9284 16.0916L12.9284 16.0916L12.9283 16.0917ZM16.129 14.529C16.3871 14.6323 16.9032 14.9419 17.4193 15.2516L17.729 15.4581C17.9747 15.6014 18.2286 15.7529 18.4744 15.8996C18.8483 16.1226 19.2036 16.3347 19.4839 16.4903C19.3806 16.6452 19.2258 16.8 19.071 16.9032L18.9677 16.9549C18.6581 17.1613 18.4 17.3161 18.0903 17.471L18.0387 17.5226C17.9355 17.6258 17.8322 17.6774 17.729 17.729C17.6258 17.7807 17.5355 17.8323 17.4452 17.8839C17.3548 17.9355 17.2645 17.9871 17.1613 18.0387L17.1097 18.0903C16.8892 18.1848 16.688 18.2985 16.4943 18.4079C16.3705 18.4779 16.2498 18.5461 16.129 18.6065V16.1807V14.529ZM11.0706 20.3613C11.3286 20.4645 11.5867 20.5677 11.8447 20.6193V16.6968C11.2512 17.0581 10.6447 17.4064 10.0383 17.7548C9.43184 18.1032 8.82539 18.4516 8.23184 18.8129C9.21249 19.329 10.1415 19.8451 11.0706 20.3613ZM13.3423 17.3935C13.5359 17.5097 13.7294 17.6258 13.9101 17.729L14.0133 17.7806C14.5294 18.0903 15.1487 18.4516 15.768 18.8128L15.7681 18.8129C15.2778 19.071 14.8004 19.3419 14.323 19.6129C13.8456 19.8839 13.3681 20.1548 12.8778 20.4129C12.6714 20.5161 12.4133 20.5677 12.1552 20.6193V16.6968L12.2585 16.7484C12.2883 16.7683 12.32 16.79 12.3529 16.8127C12.4909 16.9074 12.6496 17.0164 12.7746 17.0581C12.9552 17.1613 13.1488 17.2774 13.3423 17.3935Z"/></g>
</svg>